# xmcd CD database file generated by Grip 2.95
# 
# Track frame offsets:
#       150
#       13722
#       34980
#       60502
#       92942
#       112580
#       128727
#       142990
#       165445
#       178562
#       195892
#       210185
#       227850
#       240785
#       258150
#       280715
#       297350
# 
# Disc length: 4311 seconds
# 
# Revision: 3
# Processed by: cddbd v1.4b41PL1 Copyright (c) Steve Scherf et al.
# Submitted via: Grip 2.95
# 
DISCID=d310d511
DTITLE=Geaorge Harrison - All Things Must Pass
DYEAR=1900
DGENRE=
TTITLE0=I'd Have You Anytime 
TTITLE1=My Sweet Lord
TTITLE2=Wah-Wah
TTITLE3=Isn't It A Pity
TTITLE4=Whats Is Life
TTITLE5=If Not For You
TTITLE6=Behind That Locked Door 
TTITLE7=Let It Down
TTITLE8=Run Of The Mill
TTITLE9=Beware Of Darkness
TTITLE10=Apple Scruffs
TTITLE11=Ballad Of Sir Frankie Crisp
TTITLE12=Awaiting On You All
TTITLE13=All Things Must Pass
TTITLE14=I Dig Love
TTITLE15=Art Of Dying
TTITLE16=Hear Me Lord
EXTD=
EXTT0=
EXTT1=
EXTT2=
EXTT3=
EXTT4=
EXTT5=
EXTT6=
EXTT7=
EXTT8=
EXTT9=
EXTT10=
EXTT11=
EXTT12=
EXTT13=
EXTT14=
EXTT15=
EXTT16=
PLAYORDER=
